<svg width="27" height="27" viewBox="0 0 27 27" fill="none" xmlns="http://www.w3.org/2000/svg">
<path fill-rule="evenodd" clip-rule="evenodd" d="M1.16 8.63991C1.16 4.50905 4.50914 1.15991 8.64 1.15991H18.36C22.4909 1.15991 25.84 4.50905 25.84 8.63991V18.3599C25.84 22.4908 22.4909 25.8399 18.36 25.8399H8.64C4.50914 25.8399 1.16 22.4908 1.16 18.3599V8.63991ZM8.64 3.15991C5.61371 3.15991 3.16 5.61362 3.16 8.63991V18.3599C3.16 21.3862 5.61371 23.8399 8.64 23.8399H18.36C21.3863 23.8399 23.84 21.3862 23.84 18.3599V8.63991C23.84 5.61362 21.3863 3.15991 18.36 3.15991H8.64Z" fill="#1B1D1F"/>
<path fill-rule="evenodd" clip-rule="evenodd" d="M8.97452 8.97461C10.1748 7.77438 11.8026 7.1001 13.5 7.1001C15.1974 7.1001 16.8253 7.77438 18.0255 8.97461C19.2257 10.1748 19.9 11.8027 19.9 13.5001C19.9 15.1975 19.2257 16.8253 18.0255 18.0256C16.8253 19.2258 15.1974 19.9001 13.5 19.9001C11.8026 19.9001 10.1748 19.2258 8.97452 18.0256C7.77429 16.8253 7.10001 15.1975 7.10001 13.5001C7.10001 11.8027 7.77429 10.1748 8.97452 8.97461ZM13.5 9.1001C12.3331 9.1001 11.2139 9.56367 10.3887 10.3888C9.56358 11.214 9.10001 12.3331 9.10001 13.5001C9.10001 14.6671 9.56358 15.7862 10.3887 16.6114C11.2139 17.4365 12.3331 17.9001 13.5 17.9001C14.667 17.9001 15.7861 17.4365 16.6113 16.6114C17.4364 15.7862 17.9 14.6671 17.9 13.5001C17.9 12.3331 17.4364 11.214 16.6113 10.3888C15.7861 9.56367 14.667 9.1001 13.5 9.1001Z" fill="#1B1D1F"/>
<path d="M19.98 5.93994C19.6936 5.93994 19.4189 6.05373 19.2163 6.25627C19.0138 6.45881 18.9 6.73351 18.9 7.01994C18.9 7.30638 19.0138 7.58108 19.2163 7.78362C19.4189 7.98616 19.6936 8.09994 19.98 8.09994C20.2664 8.09994 20.5411 7.98616 20.7437 7.78362C20.9462 7.58108 21.06 7.30638 21.06 7.01994C21.06 6.73351 20.9462 6.45881 20.7437 6.25627C20.5411 6.05373 20.2664 5.93994 19.98 5.93994Z" fill="#1B1D1F"/>
</svg>
