<svg width="32" height="32" viewBox="0 0 32 32" fill="none" xmlns="http://www.w3.org/2000/svg">
<path d="M16.1875 4.00008C8.82276 3.89231 2.91462 10.4861 4.15625 18.0313C4.99816 23.1518 9.20505 27.1815 14.3438 27.8751C17.8086 28.3429 21.0478 27.3432 23.5 25.3751L22.25 23.8126C20.2042 25.4545 17.5129 26.3005 14.5938 25.9063C10.3385 25.332 6.85234 21.9524 6.15625 17.7188C5.10789 11.3481 9.991 5.90986 16.1563 6.00008C21.411 6.07715 25.8405 10.4351 26 15.6876C26.0035 15.8001 26 15.9096 26 16.0313C25.992 18.2343 24.2081 20.0009 22 20.0001C20.883 19.9994 20 19.1158 20 18.0001V17.5001V14.5001V10.0001H18V10.7813C17.2815 10.2947 16.4275 10.0001 15.5 10.0001C13.0266 10.0001 11 12.0266 11 14.5001V17.5001C11 19.9735 13.0266 22.0001 15.5 22.0001C16.8479 22.0001 18.0482 21.3856 18.875 20.4376C19.6095 21.3717 20.7288 21.9993 22 22.0001C25.284 22.0013 27.988 19.3204 28 16.0313C28 15.8991 28.0045 15.7685 28 15.6251C27.8076 9.28956 22.5247 4.09302 16.1875 4.00008ZM15.5 12.0001C16.8926 12.0001 18 13.1075 18 14.5001V17.5001C18 18.8926 16.8926 20.0001 15.5 20.0001C14.1074 20.0001 13 18.8926 13 17.5001V14.5001C13 13.1075 14.1074 12.0001 15.5 12.0001Z" fill="#1B1D1F"/>
</svg>
